<?xml version="1.0" standalone="no"?>
<!DOCTYPE svg PUBLIC "-//W3C//DTD SVG 20010904//EN"
 "http://www.w3.org/TR/2001/REC-SVG-20010904/DTD/svg10.dtd">
<svg version="1.0" xmlns="http://www.w3.org/2000/svg"
 width="18.000000pt" height="18.000000pt" viewBox="0 0 18.000000 18.000000"
 preserveAspectRatio="xMidYMid meet">

<g transform="translate(0.000000,18.000000) scale(0.100000,-0.100000)"
fill="#000000" stroke="none">
<path d="M62 125 c-9 -19 -9 -23 2 -19 15 6 29 44 17 44 -4 0 -13 -11 -19 -25z"/>
<path d="M97 136 c-4 -10 2 -20 14 -27 19 -10 20 -9 8 13 -16 31 -16 31 -22
14z"/>
<path d="M61 91 c-19 -12 21 -25 50 -16 17 6 19 9 8 16 -8 5 -21 9 -29 9 -8 0
-21 -4 -29 -9z"/>
<path d="M66 48 c9 -16 20 -28 24 -28 4 0 15 12 24 28 l17 27 -20 -24 -21 -23
-21 23 -20 24 17 -27z"/>
</g>
</svg>
