<?xml version="1.0" standalone="no"?>
<!DOCTYPE svg PUBLIC "-//W3C//DTD SVG 20010904//EN"
 "http://www.w3.org/TR/2001/REC-SVG-20010904/DTD/svg10.dtd">
<svg version="1.0" xmlns="http://www.w3.org/2000/svg"
 width="18.000000pt" height="18.000000pt" viewBox="0 0 18.000000 18.000000"
 preserveAspectRatio="xMidYMid meet" >

<g transform="translate(0.000000,18.000000) scale(0.100000,-0.100000)"
fill="#FFF" stroke="none">
<path d="M0 90 l0 -90 90 0 90 0 0 90 0 90 -90 0 -90 0 0 -90z m118 41 c23
-41 29 -66 12 -56 -5 3 -8 0 -5 -7 3 -7 -4 -24 -15 -38 l-20 -25 -22 29 c-12
17 -23 37 -25 45 -2 16 36 91 47 91 3 0 16 -17 28 -39z" fill="#FFF"/>
</g>
</svg>
